<?xml version="1.0" encoding="utf-8"?>
<svg xmlns="http://www.w3.org/2000/svg" viewBox="0 0 20 20" width="20px" height="20px">
  <path style="stroke: currentColor; fill: rgba(216, 216, 216, 0); stroke-width: 1.5px;" d="M 4.379 5.745 C 4.533 4.776 5.051 3.937 5.701 3.256 C 6.375 2.59 7.372 2.1 9.148 1.892 C 10.669 1.718 11.825 1.963 13.183 2.495 C 13.776 2.734 14.227 3.134 14.675 3.647 C 14.965 3.979 15.192 4.342 15.283 4.685 C 15.448 5.298 15.46 5.678 15.46 5.678">
    <title>Top Capsule</title>
  </path>
  <path style="stroke:currentColor; fill: rgba(216, 216, 216, 0); stroke-width: 1.5px; transform-box: fill-box; transform-origin: 50% 50%;" d="M 4.363 18.083 C 4.363 18.083 4.307 17.079 5.285 16.05 C 5.997 15.3 6.727 14.88 7.389 14.631 C 7.862 14.455 8.646 14.121 10.313 14.142 C 11.826 14.16 12.879 14.663 13.587 15.147 C 14.302 15.636 14.674 16.243 15.003 16.798 C 15.258 17.223 15.32 17.979 15.32 17.979" transform="matrix(-1, 0, 0, -1, 0.000002, -0.000003)">
    <title>Bottom Capsule</title>
  </path>
  <path style="fill: rgb(216, 216, 216); stroke: currentColor; stroke-width: 1.5px;" d="M 4.395 5.675 L 4.371 14.435">
    <title>Left</title>
  </path>
  <path style="fill: rgb(216, 216, 216); stroke: currentColor; stroke-width: 1.5px;" d="M 15.46 5.638 L 15.316 14.266">
    <title>Right</title>
  </path>
  <ellipse style="stroke: currentColor; fill: rgba(216, 216, 216, 0); stroke-width: 1.5px;" cx="9.881" cy="10.081" rx="5.532" ry="2.344"/>
</svg>